<svg width="520" height="360" viewBox="0 0 520 360" fill="none" xmlns="http://www.w3.org/2000/svg">
  <defs>
    <filter id="shadow" x="0" y="0" width="520" height="360" filterUnits="userSpaceOnUse" color-interpolation-filters="sRGB">
      <feOffset dy="2" />
      <feGaussianBlur stdDeviation="6" />
      <feColorMatrix type="matrix" values="0 0 0 0 0   0 0 0 0 0   0 0 0 0 0   0 0 0 0.12 0" />
      <feBlend mode="normal" in2="BackgroundImageFix" result="effect1_dropShadow" />
      <feBlend mode="normal" in="SourceGraphic" in2="effect1_dropShadow" result="shape" />
    </filter>
  </defs>

  <rect x="20" y="20" width="480" height="320" rx="16" fill="#FFFFFF" filter="url(#shadow)" />

  <g transform="translate(44,44)">
    <g>
      <circle cx="10" cy="10" r="8" stroke="#2F5596" stroke-width="2" fill="none" />
      <circle cx="10" cy="10" r="2" fill="#2F5596" />
      <path d="M22 21c4 0 7 3 7 7" stroke="#2F5596" stroke-width="2" stroke-linecap="round" />
    </g>

    <text x="36" y="14" font-family="Inter, Segoe UI, Arial" font-size="16" fill="#1F2937">Low Working Hours (&lt; 9h)</text>
    <text x="360" y="14" font-family="Inter, Segoe UI, Arial" font-size="14" fill="#1F2937">3 record(s)</text>

    <line x1="0" y1="32" x2="432" y2="32" stroke="#E5E7EB" />

    <g transform="translate(0,56)">
      <text x="0" y="0" font-family="Inter, Segoe UI, Arial" font-size="15" fill="#111827">Mar 10, 2026</text>
      <text x="0" y="22" font-family="Inter, Segoe UI, Arial" font-size="12" fill="#6B7280">10:28 - 19:11</text>
      <rect x="330" y="-12" width="90" height="24" rx="12" fill="#2F5596" />
      <text x="346" y="5" font-family="Inter, Segoe UI, Arial" font-size="12" fill="#FFFFFF">8h 43m Low</text>
      <line x1="0" y1="36" x2="432" y2="36" stroke="#F3F4F6" />
    </g>

    <g transform="translate(0,120)">
      <text x="0" y="0" font-family="Inter, Segoe UI, Arial" font-size="15" fill="#111827">Mar 9, 2026</text>
      <text x="0" y="22" font-family="Inter, Segoe UI, Arial" font-size="12" fill="#6B7280">11:27 - 19:20</text>
      <rect x="330" y="-12" width="90" height="24" rx="12" fill="#2F5596" />
      <text x="346" y="5" font-family="Inter, Segoe UI, Arial" font-size="12" fill="#FFFFFF">7h 53m Low</text>
      <line x1="0" y1="36" x2="432" y2="36" stroke="#F3F4F6" />
    </g>

    <g transform="translate(0,184)">
      <text x="0" y="0" font-family="Inter, Segoe UI, Arial" font-size="15" fill="#111827">Mar 2, 2026</text>
      <text x="0" y="22" font-family="Inter, Segoe UI, Arial" font-size="12" fill="#6B7280">10:38 - 17:12</text>
      <rect x="330" y="-12" width="90" height="24" rx="12" fill="#2F5596" />
      <text x="346" y="5" font-family="Inter, Segoe UI, Arial" font-size="12" fill="#FFFFFF">6h 34m Low</text>
    </g>
  </g>
</svg>
